<?xml version="1.0" standalone="no"?>
<!DOCTYPE svg PUBLIC "-//W3C//DTD SVG 20010904//EN"
 "http://www.w3.org/TR/2001/REC-SVG-20010904/DTD/svg10.dtd">
<svg version="1.0" xmlns="http://www.w3.org/2000/svg"
 width="700.000000pt" height="700.000000pt" viewBox="0 0 700.000000 700.000000"
 preserveAspectRatio="xMidYMid meet">
<metadata>
Created by potrace 1.11, written by Peter Selinger 2001-2013
</metadata>
<g transform="translate(0.000000,700.000000) scale(0.100000,-0.100000)"
fill="#000000" stroke="none">
<path d="M5980 6984 c-276 -59 -491 -264 -560 -531 l-11 -43 -62 0 c-89 0
-301 -26 -441 -55 -501 -101 -912 -343 -1190 -698 -135 -173 -253 -401 -311
-601 -14 -50 -27 -91 -28 -93 -2 -1 -75 -7 -163 -13 -331 -21 -584 -60 -904
-141 l-195 -49 -19 27 c-10 16 -67 75 -126 133 -153 151 -310 239 -527 297
-86 23 -119 26 -263 27 -178 1 -269 -13 -405 -61 -328 -117 -601 -393 -710
-717 -123 -367 -68 -738 157 -1068 10 -13 2 -37 -39 -125 -181 -385 -227 -786
-137 -1192 124 -557 532 -1082 1136 -1461 117 -74 443 -240 563 -287 328 -130
662 -221 990 -272 292 -45 428 -55 765 -55 242 0 364 4 480 17 449 51 800 132
1175 272 179 67 508 228 660 324 486 305 839 692 1030 1129 212 484 202 1036
-26 1521 -27 57 -49 108 -49 112 0 5 21 41 47 81 88 136 148 304 172 481 37
273 -41 584 -205 814 -169 236 -403 392 -699 465 -75 18 -117 22 -255 21 -151
0 -175 -3 -282 -31 -143 -37 -295 -109 -403 -190 -77 -57 -199 -177 -241 -236
l-20 -28 -110 31 c-233 65 -539 123 -661 125 l-83 1 -37 -38 c-36 -35 -38 -41
-38 -102 0 -57 3 -67 29 -94 36 -38 61 -47 166 -61 205 -27 526 -99 692 -156
131 -44 180 -28 252 84 64 100 157 194 257 261 91 62 154 89 279 123 107 29
304 29 415 -1 181 -48 357 -161 466 -299 264 -331 259 -776 -11 -1113 -50 -63
-67 -109 -56 -154 4 -14 31 -69 61 -122 135 -244 198 -487 198 -768 1 -187
-16 -289 -74 -472 -227 -703 -974 -1295 -1974 -1563 -1003 -268 -2151 -166
-3030 270 -353 175 -634 380 -852 621 -244 270 -392 555 -455 874 -28 140 -30
383 -5 520 34 189 94 360 182 518 30 53 57 108 61 122 11 42 -5 92 -43 137
-146 174 -218 365 -218 583 0 403 262 741 657 847 115 31 316 31 432 -1 214
-57 402 -195 523 -384 47 -74 91 -107 141 -107 18 0 85 16 150 36 380 116 749
174 1185 189 170 6 198 13 236 61 11 14 23 42 26 63 12 89 57 249 94 334 87
205 194 359 353 513 228 219 516 362 878 434 153 30 352 54 409 48 32 -3 34
-6 56 -76 72 -228 260 -405 502 -474 109 -31 267 -31 378 1 260 73 451 270
516 530 29 117 23 280 -14 396 -115 352 -482 566 -837 489z m232 -285 c155
-32 282 -147 328 -298 66 -211 -39 -441 -240 -530 -287 -126 -610 86 -610 399
0 277 253 485 522 429z"/>
<path d="M1084 4660 c-267 -39 -467 -253 -499 -532 -12 -110 48 -188 145 -188
82 0 135 55 145 150 9 81 33 138 79 188 52 57 103 82 190 94 86 12 118 28 145
71 46 74 17 172 -62 207 -45 21 -62 22 -143 10z"/>
<path d="M5773 4651 c-79 -37 -108 -134 -62 -208 27 -43 59 -59 145 -71 87
-12 138 -37 190 -94 46 -50 70 -107 79 -188 10 -95 63 -150 145 -150 97 0 157
78 145 188 -33 295 -248 508 -540 536 -47 5 -69 2 -102 -13z"/>
<path d="M2205 3926 c-156 -30 -300 -109 -407 -225 -209 -226 -251 -555 -106
-834 54 -105 181 -236 281 -292 124 -68 203 -88 357 -89 147 -1 208 13 334 75
169 84 301 239 364 426 23 69 26 95 26 218 1 108 -3 153 -17 199 -78 251 -266
439 -508 506 -96 26 -235 33 -324 16z m235 -300 c166 -44 293 -186 320 -358
28 -180 -76 -370 -247 -451 -64 -30 -75 -32 -179 -32 -107 0 -112 1 -186 38
-174 85 -272 271 -241 453 43 250 291 413 533 350z"/>
<path d="M4565 3931 c-290 -47 -514 -243 -602 -527 -14 -46 -18 -90 -17 -199
0 -124 3 -149 27 -220 146 -438 649 -634 1054 -410 100 56 227 187 281 292 60
116 84 214 84 343 0 213 -80 394 -239 539 -75 69 -208 141 -308 166 -74 19
-213 27 -280 16z m210 -306 c166 -43 291 -183 318 -354 28 -183 -69 -363 -241
-448 -74 -37 -79 -38 -186 -38 -104 0 -115 2 -179 32 -172 82 -278 277 -247
456 44 255 289 415 535 352z"/>
<path d="M2262 2020 c-18 -11 -41 -34 -53 -52 -40 -64 -6 -197 95 -368 146
-249 408 -437 722 -520 393 -103 882 -66 1199 92 266 133 477 366 564 626 26
77 26 128 1 170 -51 83 -168 96 -232 25 -9 -10 -30 -55 -46 -100 -42 -120 -86
-187 -192 -293 -107 -107 -197 -164 -332 -210 -364 -124 -844 -94 -1131 70
-180 103 -309 256 -372 440 -14 41 -33 82 -42 93 -45 49 -124 61 -181 27z"/>
</g>
</svg>
